<svg width="120" height="88" viewBox="0 0 120 88" fill="none" xmlns="http://www.w3.org/2000/svg">
<g clip-path="url(#clip0)">
<path d="M110.842 41.8538H92.887V62.3084H110.842V41.8538Z" fill="#AD8FC2"/>
<path d="M92.887 32.9927H47.7992V62.3084H92.887V32.9927Z" fill="#AD8FC2"/>
<path d="M36.3314 87.1232C41.6444 87.1232 45.9515 82.8142 45.9515 77.4987C45.9515 72.1832 41.6444 67.8741 36.3314 67.8741C31.0184 67.8741 26.7113 72.1832 26.7113 77.4987C26.7113 82.8142 31.0184 87.1232 36.3314 87.1232Z" fill="#FDC870"/>
<path d="M109.034 87.1232C114.347 87.1232 118.654 82.8142 118.654 77.4987C118.654 72.1832 114.347 67.8741 109.034 67.8741C103.721 67.8741 99.4142 72.1832 99.4142 77.4987C99.4142 82.8142 103.721 87.1232 109.034 87.1232Z" fill="#FDC870"/>
<path d="M3.9364 63.514C3.41422 63.514 2.89205 63.735 2.51046 64.0967C2.12887 64.4583 1.92803 65.0009 1.92803 65.5233C1.92803 66.0457 2.14895 66.5681 2.51046 66.9499C2.87196 67.3316 3.39414 67.5326 3.9364 67.5326C4.47866 67.5326 4.98075 67.3116 5.36234 66.9499C5.74393 66.5681 5.94477 66.0658 5.94477 65.5233C5.94477 65.0009 5.72385 64.4784 5.36234 64.0967C4.98075 63.735 4.45858 63.514 3.9364 63.514Z" fill="#444444"/>
<path d="M32.0536 32.4301H17.6536C16.549 32.4301 15.6452 31.5259 15.6452 30.4208C15.6452 29.3157 16.549 28.4115 17.6536 28.4115H32.6561L32.0536 32.4301Z" fill="#444444"/>
<path d="M32.6561 43.9032H3.53473C2.43013 43.9032 1.52636 42.999 1.52636 41.8939C1.52636 40.7888 2.43013 39.8846 3.53473 39.8846H32.6561C33.7607 39.8846 33.7607 43.9032 32.6561 43.9032Z" fill="#444444"/>
<path d="M32.6561 55.738H14.0987C12.9941 55.738 12.0904 54.8338 12.0904 53.7287C12.0904 52.6236 12.9941 51.7194 14.0987 51.7194H32.6561C33.7607 51.7194 33.7607 55.738 32.6561 55.738Z" fill="#444444"/>
<path d="M32.6561 67.5326H11.749C10.6444 67.5326 9.74059 66.6284 9.74059 65.5233C9.74059 64.4182 10.6444 63.514 11.749 63.514H32.6561C33.7607 63.514 33.7607 67.5326 32.6561 67.5326Z" fill="#444444"/>
<path d="M34.0619 87.5252C27.5347 87.5252 22.2326 82.2206 22.2326 75.6904C22.2326 69.1602 27.5347 63.8556 34.0619 63.8556C40.5891 63.8556 45.8912 69.1602 45.8912 75.6904C45.8912 82.2206 40.5891 87.5252 34.0619 87.5252ZM34.0619 68.2761C29.9649 68.2761 26.651 71.6115 26.651 75.6904C26.651 79.7693 29.9849 83.1047 34.0619 83.1047C38.1389 83.1047 41.4728 79.7693 41.4728 75.6904C41.4728 71.6115 38.159 68.2761 34.0619 68.2761Z" fill="#444444"/>
<path d="M106.765 87.5252C100.238 87.5252 94.9356 82.2206 94.9356 75.6904C94.9356 69.1602 100.238 63.8556 106.765 63.8556C113.292 63.8556 118.594 69.1602 118.594 75.6904C118.594 82.2206 113.292 87.5252 106.765 87.5252ZM106.765 68.2761C102.668 68.2761 99.354 71.6115 99.354 75.6904C99.354 79.7693 102.688 83.1047 106.765 83.1047C110.842 83.1047 114.176 79.7693 114.176 75.6904C114.176 71.6115 110.862 68.2761 106.765 68.2761Z" fill="#444444"/>
<path d="M109.315 59.5155H30.728V63.936H109.315V59.5155Z" fill="#444444"/>
<path d="M34.8653 66.0658H30.4469V12.2768C30.4469 8.8811 27.6753 6.10827 24.2812 6.10827H15.6452V1.68781H24.3013C30.1255 1.68781 34.8854 6.42975 34.8854 12.2768V66.0658H34.8653Z" fill="#444444"/>
<path d="M109.556 63.9359H87.2034V37.4935H109.577V63.9359H109.556ZM91.6218 59.5155H105.158V41.9341H91.6218V59.5155Z" fill="#444444"/>
<path d="M97.1448 73.4801H42.4971V77.9006H97.1448V73.4801Z" fill="#444444"/>
<path d="M91.6218 63.936H42.1155V27.9695H91.6218V63.936ZM46.5339 59.5155H87.2033V32.3899H46.5339V59.5155Z" fill="#444444"/>
<path d="M80.9774 30.2802H76.559C76.559 24.9354 72.2209 20.5752 66.8586 20.5752C61.5163 20.5752 57.1582 24.9153 57.1582 30.2802H52.7397C52.7397 22.5042 59.0661 16.1548 66.8586 16.1548C74.651 16.1749 80.9774 22.5042 80.9774 30.2802Z" fill="#444444"/>
<path d="M57.1783 30.1797H52.7598V60.3996H57.1783V30.1797Z" fill="#444444"/>
<path d="M79.5113 30.1797H75.0929V60.3996H79.5113V30.1797Z" fill="#444444"/>
</g>
<defs>
<clipPath id="clip0">
<rect width="120" height="87.1233" fill="white"/>
</clipPath>
</defs>
</svg>
