<svg width="73" height="75" viewBox="0 0 73 75" fill="none" xmlns="http://www.w3.org/2000/svg">
<path d="M71.7488 33.4686L64.2397 26.1237V11.8304C64.2397 10.3392 63.0281 9.13357 61.5295 9.13357H52.1072C50.6883 9.13357 49.5404 10.2123 49.4129 11.5766L38.3805 0.773359C37.3123 -0.257786 35.6542 -0.257786 34.5861 0.773359L1.2496 33.4686C0.0379486 34.6425 -0.328736 36.4193 0.308977 38.0057C0.962633 39.5603 2.4772 40.5756 4.16714 40.5756H7.88182V72.3032C7.88182 73.7944 9.09348 75 10.5921 75H62.4063C63.9049 75 65.1166 73.7944 65.1166 72.3032V62.3248C65.1166 60.8336 63.9049 59.628 62.4063 59.628C60.9077 59.628 59.696 60.8336 59.696 62.3248V69.6063H47.436V50.4587C47.436 44.4622 42.5256 39.5762 36.4992 39.5762C30.4728 39.5762 25.5624 44.4622 25.5624 50.4587V69.6063H13.2864V40.5756C14.243 40.528 14.8488 40.0204 15.072 39.7824L36.4992 18.7788L57.9583 39.8141C58.4525 40.2742 59.0743 40.5439 59.712 40.5756V47.6508C59.712 49.142 60.9236 50.3477 62.4223 50.3477C63.9209 50.3477 65.1325 49.142 65.1325 47.6508V40.5756H68.8472C70.5372 40.5756 72.0517 39.5603 72.7054 37.9739C73.3271 36.4034 72.9445 34.6425 71.7488 33.4686ZM54.8175 16.891V14.5114H58.8192V20.8093L54.8175 16.891ZM65.7862 35.1819H60.9555L38.3964 13.0837C37.9022 12.5919 37.2007 12.3063 36.4992 12.3063C35.9253 12.3063 35.3513 12.4967 34.873 12.8298L34.7455 12.9409C34.6339 13.0519 15.4068 31.8981 12.0429 35.1819H7.21222L36.4992 6.48432L65.7862 35.1819ZM36.4992 44.8112C39.624 44.8112 42.1749 47.3494 42.1749 50.4587V69.3366H30.8236V50.4587C30.8236 47.3494 33.3744 44.8112 36.4992 44.8112Z" fill="#76459A"/>
</svg>
