<svg width="161" height="161" viewBox="0 0 161 161" fill="none" xmlns="http://www.w3.org/2000/svg">
<g clip-path="url(#clip0)">
<path d="M37.2672 31.2656V34.5719C40.6813 35.65 43.0172 38.7766 43.0172 42.3703V42.8016H37.2672V42.3703C37.2672 41.0047 36.1531 39.9266 34.8234 39.9266H33.9969C33.0625 39.9266 32.2 40.4656 31.8047 41.2922C31.1938 42.5141 31.6969 43.9875 32.9188 44.5984L38.525 47.4016C40.5375 48.4078 42.0109 50.1687 42.6938 52.2891C44.0234 56.6016 41.6156 61.2016 37.3031 62.5312V65.8375H31.5531V62.5312C28.1391 61.4531 25.8031 58.3266 25.8031 54.7328V54.2656H31.5531V54.6969C31.5531 56.0625 32.6672 57.1406 33.9969 57.1406H34.8234C35.7578 57.1406 36.6203 56.6016 37.0156 55.775C37.6266 54.5531 37.1234 53.0797 35.9016 52.4687L30.2953 49.6656C28.2828 48.6594 26.8094 46.8984 26.1266 44.7781C24.7969 40.4656 27.2047 35.8656 31.5172 34.5359V31.2656H37.2672Z" fill="#FDC870"/>
<path d="M35.8297 30.1875V33.4937C39.2437 34.5719 41.5797 37.6984 41.5797 41.2922V41.7234H35.8297V41.2922C35.8297 39.9266 34.7156 38.8484 33.3859 38.8484H32.5594C31.625 38.8484 30.7625 39.3875 30.3672 40.2141C29.7562 41.4359 30.2594 42.9094 31.4812 43.5203L37.0875 46.3234C39.1 47.3297 40.5734 49.0906 41.2562 51.2109C42.5859 55.5234 40.1781 60.1234 35.8656 61.4531V64.7594H30.1156V61.4531C26.7015 60.375 24.3656 57.2484 24.3656 53.6547V53.1875H30.1156V53.6187C30.1156 54.9844 31.2297 56.0625 32.5594 56.0625H33.3859C34.3203 56.0625 35.1828 55.5234 35.5781 54.6969C36.189 53.475 35.6859 52.0016 34.464 51.3906L28.8578 48.5875C26.8453 47.5812 25.3719 45.8203 24.689 43.7C23.3594 39.3875 25.7672 34.7875 30.0797 33.4578V30.1875H35.8297ZM39.7828 26.2344H35.8297H30.0797H26.1265V30.1875V30.9781C24.2937 32.0922 22.7844 33.7094 21.7781 35.65C20.2687 38.525 19.9812 41.7953 20.9156 44.8859C21.4187 46.5031 22.2453 47.9766 23.3234 49.2344H20.3406V53.1875V53.6187C20.3406 57.8953 22.5687 61.7406 26.0906 63.9328V64.7234V68.6766H30.0437H35.7937H39.7469V64.7234V63.9328C41.5797 62.8187 43.089 61.2016 44.0953 59.2609C45.6047 56.3859 45.8922 53.1156 44.9578 50.025C44.4547 48.4078 43.6281 46.9344 42.55 45.6766H45.5328V41.7234V41.2922C45.5328 37.0156 43.3047 33.1703 39.7828 30.9781V30.1875V26.2344Z" fill="#444444"/>
<path d="M144.828 89.8438V49.5938C144.828 44.8141 148.673 40.9688 153.453 40.9688C158.233 40.9688 162.078 44.8141 162.078 49.5938V89.8438H144.828Z" fill="#AD8FC2"/>
<path d="M110.328 127.219V15.0938C110.328 10.3141 114.173 6.46875 118.953 6.46875C123.733 6.46875 127.578 10.3141 127.578 15.0938V118.594C127.578 123.373 131.423 127.219 136.203 127.219H110.328Z" fill="#AD8FC2"/>
<path d="M149.5 34.5H126.5V11.5C126.5 5.13906 121.361 0 115 0H11.5C5.13906 0 0 5.13906 0 11.5V149.5C0 150.255 0.2875 151.009 0.826562 151.548L9.45156 160.173C10.5656 161.287 12.3984 161.287 13.5125 160.173L20.125 153.561L26.7016 160.137C27.8156 161.252 29.6484 161.252 30.7625 160.137L37.3391 153.561L43.9156 160.137C45.0297 161.252 46.8625 161.252 47.9766 160.137L54.5531 153.561L61.1297 160.137C62.2438 161.252 64.0766 161.252 65.1906 160.137L71.7672 153.561L78.3438 160.137C79.4578 161.252 81.2906 161.252 82.4047 160.137L88.9813 153.561L95.5578 160.137C96.6719 161.252 98.5047 161.252 99.6188 160.137L108.244 151.512C108.783 150.973 109.07 150.255 109.07 149.464V126.464H132.07C138.431 126.464 143.57 121.325 143.57 114.964V89.089H157.945C159.527 89.089 160.82 87.7953 160.82 86.214V46C161 39.6391 155.861 34.5 149.5 34.5ZM103.5 11.5V148.314L97.75 154.064L91.1734 147.487C90.0594 146.373 88.2266 146.373 87.1125 147.487L80.5 154.064L73.9234 147.487C72.8094 146.373 70.9766 146.373 69.8625 147.487L63.25 154.064L56.6734 147.487C55.5594 146.373 53.7266 146.373 52.6125 147.487L46 154.064L39.4234 147.487C38.3094 146.373 36.4766 146.373 35.3625 147.487L28.75 154.064L22.1734 147.487C21.0594 146.373 19.2266 146.373 18.1125 147.487L11.5 154.064L5.75 148.314V11.5C5.75 8.3375 8.3375 5.75 11.5 5.75H105.045C104.039 7.51094 103.5 9.4875 103.5 11.5ZM109.25 11.5C109.25 8.3375 111.838 5.75 115 5.75C118.162 5.75 120.75 8.3375 120.75 11.5V115C120.75 117.012 121.325 119.025 122.331 120.75H109.25V11.5ZM138 115C138 118.162 135.413 120.75 132.25 120.75C129.087 120.75 126.5 118.162 126.5 115V40.25H139.581C138.539 41.975 138 43.9875 138 46V115ZM155.25 83.375H143.75V46C143.75 42.8375 146.337 40.25 149.5 40.25C152.663 40.25 155.25 42.8375 155.25 46V83.375Z" fill="#444444"/>
<path d="M94.875 97.75H25.875V103.5H94.875V97.75Z" fill="#444444"/>
<path d="M94.875 77.625H25.875V83.375H94.875V77.625Z" fill="#444444"/>
<path d="M94.875 117.875H25.875V123.625H94.875V117.875Z" fill="#444444"/>
<path d="M92 57.5H54.625V63.25H92V57.5Z" fill="#444444"/>
<path d="M92 37.375H54.625V43.125H92V37.375Z" fill="#444444"/>
</g>
<defs>
<clipPath id="clip0">
<rect width="161" height="161" fill="white"/>
</clipPath>
</defs>
</svg>
