<svg width="55" height="61" viewBox="0 0 55 61" fill="none" xmlns="http://www.w3.org/2000/svg">
<path d="M47.3503 0H6.78391C3.04933 0 0 3.0322 0 6.76677V53.2434C0 56.978 3.0322 60.0102 6.76677 60.0102H47.3332C51.0677 60.0102 54.0999 56.978 54.0999 53.2434V6.76677C54.1171 3.0322 51.0849 0 47.3503 0ZM49.4917 6.76677V18.7928H34.4506C34.0908 18.7928 33.8167 18.5016 33.8167 18.1589V4.62539H47.3503C48.5323 4.62539 49.4917 5.58473 49.4917 6.76677ZM47.3503 55.4019H6.78391C5.60186 55.4019 4.64252 54.4426 4.64252 53.2605V6.76677C4.64252 5.58473 5.60186 4.62539 6.78391 4.62539H29.1914V18.1589C29.1914 21.0541 31.5554 23.4182 34.4506 23.4182H49.4917V53.2434C49.4917 54.4254 48.5323 55.4019 47.3503 55.4019Z" fill="#76459A"/>
<path d="M21.1226 11.6663H9.23364V16.2916H21.1226V11.6663Z" fill="#76459A"/>
<path d="M21.1226 22.0305H9.23364V26.6559H21.1226V22.0305Z" fill="#76459A"/>
<path d="M43.9755 32.4119H9.23364V37.0373H43.9755V32.4119Z" fill="#76459A"/>
<path d="M43.9755 42.7764H9.23364V47.4018H43.9755V42.7764Z" fill="#76459A"/>
</svg>
