<svg width="120" height="114" viewBox="0 0 120 114" fill="none" xmlns="http://www.w3.org/2000/svg">
<path d="M80.2957 15.1798H65.1238V23.9588H80.2957V15.1798Z" fill="#FDC870"/>
<path d="M64.0813 15.1798H80.0518C83.0018 15.1798 85.3752 12.8017 85.3752 9.84577C85.3752 6.88982 83.0018 4.51172 80.0518 4.51172H64.0813C61.1312 4.51172 58.7579 6.88982 58.7579 9.84577C58.7579 12.7795 61.1312 15.1798 64.0813 15.1798Z" fill="#AD8FC2"/>
<path d="M72.7542 109.281C96.2748 109.281 115.342 90.1763 115.342 66.609C115.342 43.0417 96.2748 23.9366 72.7542 23.9366C49.2336 23.9366 30.1664 43.0417 30.1664 66.609C30.1664 90.1763 49.2336 109.281 72.7542 109.281Z" fill="#FDC870"/>
<path d="M68.7616 98.8577C86.5367 98.8577 100.946 84.4195 100.946 66.609C100.946 48.7984 86.5367 34.3602 68.7616 34.3602C50.9864 34.3602 36.5767 48.7984 36.5767 66.609C36.5767 84.4195 50.9864 98.8577 68.7616 98.8577Z" fill="white"/>
<path d="M68.7616 71.2985C71.3464 71.2985 73.4418 69.199 73.4418 66.609C73.4418 64.0191 71.3464 61.9195 68.7616 61.9195C66.1767 61.9195 64.0813 64.0191 64.0813 66.609C64.0813 69.199 66.1767 71.2985 68.7616 71.2985Z" fill="#AD8FC2"/>
<path d="M113.346 62.1639C112.325 51.8959 107.734 42.2057 100.436 34.8936C94.2033 28.6483 86.5508 24.6255 78.5213 22.8475V17.1801C81.8041 16.3577 84.244 13.3796 84.244 9.84576C84.244 5.68964 80.8503 2.28918 76.7024 2.28918H60.732C56.5841 2.28918 53.1904 5.68964 53.1904 9.84576C53.1904 13.3796 55.6303 16.3577 58.9131 17.1801V22.8475C50.9057 24.6478 43.2976 28.6483 37.0647 34.8936C35.7117 36.2493 34.4473 37.694 33.2939 39.183C33.2274 39.183 33.183 39.183 33.1165 39.183H17.3457C16.1257 39.183 15.1275 40.1832 15.1275 41.4056C15.1275 42.6279 16.1257 43.6281 17.3457 43.6281H30.2994C28.6802 46.3618 27.3715 49.2288 26.3734 52.1626H2.21811C0.998152 52.1626 0 53.1627 0 54.3851C0 55.6075 0.998152 56.6076 2.21811 56.6076H25.1091C24.4658 59.4302 24.1109 62.275 24 65.1421H14.1959C12.976 65.1421 11.9778 66.1422 11.9778 67.3646C11.9778 68.587 12.976 69.5871 14.1959 69.5871H24.0665C24.244 72.4542 24.7098 75.3212 25.4418 78.1216H11.0906C9.87061 78.1216 8.87246 79.1218 8.87246 80.3441C8.87246 81.5665 9.87061 82.5667 11.0906 82.5667H26.8836C29.0573 88.3452 32.451 93.7459 37.0869 98.3688C44.3845 105.681 54.0776 110.282 64.3475 111.304C65.8115 111.459 67.2754 111.526 68.7394 111.526C77.39 111.526 85.9298 109.015 93.183 104.281C94.2033 103.614 94.4917 102.236 93.8263 101.214C93.1608 100.191 91.7856 99.9023 90.7653 100.569C74.8836 110.926 53.634 108.681 40.2144 95.235C24.4658 79.4551 24.4658 53.8072 40.2144 38.0273C55.963 22.2474 81.5601 22.2474 97.3087 38.0273C110.706 51.4514 112.946 72.7431 102.654 88.6341C101.989 89.6565 102.277 91.0345 103.298 91.7012C104.318 92.368 105.693 92.0791 106.359 91.0567C111.882 82.5444 114.344 72.2764 113.346 62.1639ZM57.6488 9.84576C57.6488 8.13442 59.0462 6.73423 60.7542 6.73423H76.7246C78.4325 6.73423 79.83 8.13442 79.83 9.84576C79.83 11.5571 78.4325 12.9573 76.7246 12.9573H76.3253H61.1534H60.7542C59.024 12.9573 57.6488 11.5571 57.6488 9.84576ZM63.3494 22.0696V17.4023H74.085V22.0696C70.5361 21.6251 66.9205 21.6473 63.3494 22.0696Z" fill="#444444"/>
<path d="M98.8835 94.5683C98.3068 94.5683 97.7301 94.8128 97.3087 95.2128C96.8873 95.6351 96.6654 96.1907 96.6654 96.7908C96.6654 97.3909 96.9094 97.9465 97.3087 98.3688C97.7301 98.7911 98.2847 99.0133 98.8835 99.0133C99.4603 99.0133 100.037 98.7689 100.458 98.3688C100.88 97.9465 101.102 97.3909 101.102 96.7908C101.102 96.1907 100.858 95.6351 100.458 95.2128C100.037 94.8128 99.4603 94.5683 98.8835 94.5683Z" fill="#444444"/>
<path d="M68.7616 32.1376C49.7967 32.1376 34.3586 47.6064 34.3586 66.6089C34.3586 85.6115 49.7967 101.102 68.7616 101.102C87.7264 101.102 103.165 85.6337 103.165 66.6312C103.165 47.6286 87.7264 32.1376 68.7616 32.1376ZM68.7616 96.6574C52.2366 96.6574 38.7948 83.1889 38.7948 66.6312C38.7948 50.0734 52.2366 36.5827 68.7616 36.5827C85.2865 36.5827 98.7283 50.0512 98.7283 66.6089C98.7283 83.1667 85.2865 96.6574 68.7616 96.6574Z" fill="#444444"/>
<path d="M82.8022 49.4066L71.8226 60.4081C70.9131 59.9636 69.8706 59.6969 68.7837 59.6969C67.6969 59.6969 66.6544 59.9636 65.7449 60.4081L60.8207 55.4741C59.9556 54.6073 58.5582 54.6073 57.6932 55.4741C56.8281 56.3409 56.8281 57.7411 57.6932 58.6078L62.6174 63.5418C62.1738 64.4531 61.9076 65.4977 61.9076 66.5867C61.9076 70.3872 64.9908 73.4987 68.8059 73.4987C72.5989 73.4987 75.7043 70.4094 75.7043 66.5867C75.7043 65.4977 75.4381 64.4531 74.9945 63.5418L85.6636 52.8515L85.9963 52.5181C86.8614 51.6514 86.8614 50.2512 85.9963 49.3844C85.1313 48.5176 83.6673 48.5398 82.8022 49.4066ZM68.7616 69.0759C67.4085 69.0759 66.2995 67.9647 66.2995 66.6089C66.2995 65.2532 67.4085 64.1419 68.7616 64.1419C70.1146 64.1419 71.2237 65.2532 71.2237 66.6089C71.2237 67.9647 70.1146 69.0759 68.7616 69.0759Z" fill="#444444"/>
<path d="M92.4732 64.4308H90.4103C89.1904 64.4308 88.1922 65.431 88.1922 66.6534C88.1922 67.8758 89.1904 68.8759 90.4103 68.8759H92.4732C93.6932 68.8759 94.6913 67.8758 94.6913 66.6534C94.6913 65.431 93.6932 64.4308 92.4732 64.4308Z" fill="#444444"/>
<path d="M47.0906 64.3643H45.0277C43.8078 64.3643 42.8096 65.3644 42.8096 66.5868C42.8096 67.8092 43.8078 68.8093 45.0277 68.8093H47.0906C48.3105 68.8093 49.3087 67.8092 49.3087 66.5868C49.3087 65.3644 48.3327 64.3643 47.0906 64.3643Z" fill="#444444"/>
<path d="M68.7837 47.1397C70.0037 47.1397 71.0018 46.1395 71.0018 44.9172V42.8502C71.0018 41.6278 70.0037 40.6277 68.7837 40.6277C67.5638 40.6277 66.5656 41.6278 66.5656 42.8502V44.9172C66.5656 46.1395 67.5638 47.1397 68.7837 47.1397Z" fill="#444444"/>
<path d="M68.7394 86.1005C67.5194 86.1005 66.5213 87.1006 66.5213 88.323V90.3899C66.5213 91.6123 67.5194 92.6125 68.7394 92.6125C69.9593 92.6125 70.9575 91.6123 70.9575 90.3899V88.323C70.9575 87.1006 69.9593 86.1005 68.7394 86.1005Z" fill="#444444"/>
<path d="M2.21811 78.0994C1.6414 78.0994 1.0647 78.3438 0.643253 78.7439C0.221811 79.1439 0 79.744 0 80.3219C0 80.8997 0.243993 81.4776 0.643253 81.8999C1.04251 82.3222 1.61922 82.5444 2.21811 82.5444C2.81701 82.5444 3.37153 82.2999 3.79298 81.8999C4.21442 81.4776 4.43623 80.922 4.43623 80.3219C4.43623 79.744 4.19224 79.1662 3.79298 78.7439C3.37153 78.3438 2.79482 78.0994 2.21811 78.0994Z" fill="#444444"/>
</svg>
