<svg width="52" height="68" viewBox="0 0 52 68" fill="none" xmlns="http://www.w3.org/2000/svg">
<path d="M42.7658 28.6461V18.523C42.7658 9.5384 35.495 2.24609 26.5369 2.24609C17.5788 2.24609 10.308 9.5384 10.308 18.523V28.6461C6.65722 28.7692 3.74277 31.7846 3.74277 35.4769V59.1076C3.74277 62.8923 6.81061 65.9692 10.5841 65.9692H42.551C46.3245 65.9692 49.3923 62.8923 49.3923 59.1076V35.4769C49.331 31.7846 46.4165 28.7692 42.7658 28.6461ZM16.4437 18.523C16.4437 12.9538 20.9841 8.39994 26.5369 8.39994C32.0897 8.39994 36.6301 12.9538 36.6301 18.523V28.6461H16.4437V18.523ZM43.1953 59.1076C43.1953 59.4769 42.8885 59.8153 42.4897 59.8153H10.5534C10.1852 59.8153 9.84778 59.5076 9.84778 59.1076V35.4769C9.84778 35.1076 10.1546 34.7692 10.5534 34.7692H13.3758H39.6979H42.5204C42.8885 34.7692 43.226 35.0769 43.226 35.4769V59.1076H43.1953Z" fill="#76459A"/>
<path d="M26.5369 41.1077C24.1746 41.1077 22.2419 43.0461 22.2419 45.4154C22.2419 46.5846 22.7021 47.6307 23.469 48.4V51.4154C23.469 53.1077 24.8496 54.4923 26.5369 54.4923C28.2242 54.4923 29.6047 53.1077 29.6047 51.4154V48.4C30.3717 47.6307 30.8319 46.5538 30.8319 45.4154C30.8319 43.0461 28.8991 41.1077 26.5369 41.1077Z" fill="#76459A"/>
</svg>
