<svg width="123" height="60" viewBox="0 0 123 60" fill="none" xmlns="http://www.w3.org/2000/svg">
<path d="M15.0567 45.0697C15.0418 45.8331 14.7588 48.3435 13.6121 49.4593C13.1802 49.8703 12.6738 50.1639 12.0483 50.1639C11.1845 50.1639 10.3357 49.9878 9.59101 49.9144C7.77408 49.7382 6.34436 49.5327 5.48058 50.5309C4.84019 51.2797 4.76573 52.366 5.27208 54.0984L5.36144 54.392L7.17837 53.7901L7.1039 53.5111C6.65712 51.999 6.9103 51.676 6.9103 51.676C7.1039 51.4412 8.50383 51.5733 9.33783 51.6467C10.1271 51.7201 11.0356 51.7935 11.9888 51.7935C13.1355 51.7935 14.1184 51.4265 14.9226 50.6484C16.8885 48.7399 16.963 45.1725 16.963 45.0257V44.7174L15.0716 44.8055L15.0567 45.0697Z" fill="white"/>
<path d="M25.8987 52.8799L23.3967 53.8341L22.4436 44.5853L20.5671 44.8642L21.7585 56.4179L26.4944 54.6269L25.8987 52.8799Z" fill="white"/>
<path d="M34.045 14.1669H17.0374C15.1758 14.1669 13.3142 15.723 12.8972 17.5581L7.26768 42.1923C6.82089 44.1742 8.01232 45.8331 9.94839 45.8331H27.7453C29.6963 45.8331 31.5877 44.1889 31.96 42.207L36.7555 17.5288C37.1129 15.6937 35.9066 14.1669 34.045 14.1669ZM12.9419 41.6785C12.8525 41.6785 12.778 41.6638 12.6887 41.6491C12.1227 41.517 11.7653 40.9445 11.9142 40.3866L17.231 19.0996C17.365 18.5417 17.9458 18.1894 18.5118 18.3362C19.0777 18.4683 19.4351 19.0409 19.2862 19.5987L13.9695 40.8857C13.8503 41.3702 13.4184 41.6785 12.9419 41.6785ZM19.4202 41.6785C19.3309 41.6785 19.2564 41.6638 19.1671 41.6491C18.6011 41.517 18.2437 40.9445 18.3926 40.3866L23.7094 19.0996C23.8434 18.5417 24.4242 18.1894 24.9902 18.3362C25.5561 18.4683 25.9135 19.0409 25.7646 19.5987L20.4478 40.8857C20.3287 41.3702 19.8968 41.6785 19.4202 41.6785ZM32.243 19.5987L26.9262 40.8857C26.8071 41.3702 26.3752 41.6785 25.8986 41.6785C25.8093 41.6785 25.7348 41.6638 25.6454 41.6491C25.0795 41.517 24.7221 40.9445 24.871 40.3866L30.1878 19.0996C30.3218 18.5417 30.9026 18.1894 31.4685 18.3362C32.0345 18.4683 32.3919 19.0409 32.243 19.5987Z" fill="white"/>
<path d="M24.2455 5.75482V5.82823H31.7813V5.78421L24.2455 5.75482Z" fill="white"/>
<path d="M30.0389 14.1816H31.1558L32.8834 5.71082H31.7813L30.0389 14.1816Z" fill="white"/>
<path d="M33.777 5.25571L34.0004 4.11061C34.0599 3.83167 33.911 3.58212 33.6132 3.58212H23.2328C22.9499 3.58212 22.6073 3.80233 22.5478 4.09595L22.3095 5.2704C22.2499 5.54934 22.4882 5.82824 22.7861 5.82824H22.9052H23.1435H24.2456V5.76953L31.7962 5.79889V5.82824H32.8983H33.1961C33.4791 5.82824 33.7174 5.54932 33.777 5.25571Z" fill="white"/>
<path d="M21.2819 14.1816H22.3988L24.2455 5.71082H23.1435L21.2819 14.1816Z" fill="white"/>
<path d="M72.1409 17.1911L67.3603 44.0568H60.733L62.7436 32.8407H52.4079L50.3974 44.0568H43.7999L48.5805 17.1911H55.178L53.3164 27.5997H63.652L65.4987 17.1911H72.1409Z" fill="white"/>
<path d="M89.238 23.6506C90.6826 24.3553 91.8144 25.3976 92.6335 26.7482C93.4378 28.0988 93.8548 29.7137 93.8548 31.5635C93.8548 32.3269 93.7803 33.149 93.6165 34.0299C93.2293 36.1292 92.425 37.9643 91.1889 39.5058C89.9528 41.0472 88.4338 42.2364 86.6168 43.0732C84.7999 43.91 82.8638 44.321 80.7788 44.321C78.8576 44.321 77.1598 43.954 75.6855 43.2346C74.226 42.5153 73.0792 41.473 72.275 40.137C71.4708 38.8011 71.0538 37.2009 71.0538 35.3511C71.0538 34.573 71.1282 33.7362 71.2921 32.8848C71.6793 30.7854 72.4835 28.9503 73.7196 27.3942C74.9557 25.838 76.4897 24.6489 78.3215 23.8268C80.1533 23.0047 82.1192 22.5936 84.2042 22.5936C86.1105 22.5789 87.7785 22.9313 89.238 23.6506ZM79.9895 29.5375C78.9768 30.4184 78.3066 31.725 78.0087 33.4573C77.9045 34.1179 77.8598 34.5877 77.8598 34.8666C77.8598 36.1145 78.2023 37.0541 78.8874 37.7C79.5725 38.346 80.4512 38.669 81.5235 38.669C82.7894 38.669 83.9212 38.2285 84.9339 37.333C85.9466 36.4522 86.6168 35.1603 86.9147 33.4573C86.9891 32.9582 87.0338 32.4884 87.0338 32.048C87.0338 30.8001 86.6913 29.8606 86.0062 29.1999C85.3211 28.5393 84.4574 28.2163 83.4 28.2163C82.1341 28.2016 81.0022 28.6567 79.9895 29.5375Z" fill="white"/>
<path d="M116 24.7517C117.371 26.1904 118.071 28.2016 118.071 30.7561C118.071 31.5929 117.996 32.4884 117.832 33.4573C117.415 35.6594 116.671 37.5826 115.583 39.2415C114.496 40.8857 113.156 42.1483 111.592 43.0291C110.028 43.91 108.36 44.3357 106.618 44.3357C104.95 44.3357 103.595 43.9687 102.552 43.2347C101.51 42.5006 100.839 41.5023 100.527 40.2251L98.0247 54.1718H91.3974L97.0269 22.8578H103.624L102.924 26.6895C103.699 25.427 104.741 24.4287 106.052 23.68C107.363 22.9459 108.852 22.5789 110.52 22.5789C112.784 22.5789 114.615 23.2983 116 24.7517ZM109.12 37.2596C110.148 36.3494 110.818 35.0869 111.13 33.4573C111.205 33.0022 111.25 32.5765 111.25 32.2095C111.25 30.9616 110.892 30.0073 110.192 29.3173C109.492 28.6274 108.539 28.2897 107.363 28.2897C105.978 28.2897 104.756 28.7595 103.699 29.6844C102.642 30.6092 101.971 31.8718 101.688 33.472C101.614 33.883 101.569 34.2794 101.569 34.6905C101.569 35.9384 101.927 36.9073 102.627 37.5973C103.327 38.2873 104.28 38.6396 105.456 38.6396C106.856 38.6249 108.077 38.1698 109.12 37.2596Z" fill="white"/>
</svg>
