<svg width="70" height="61" viewBox="0 0 70 61" fill="none" xmlns="http://www.w3.org/2000/svg">
<path d="M58.2595 61H10.8239C4.86975 61 0 56.15 0 50.1762V22.2195C0 16.2654 4.85003 11.3956 10.8239 11.3956H17.8426C18.0398 11.3956 18.1975 11.2379 18.1975 11.0407V8.4777C18.1975 3.80511 22.0026 0 26.6752 0H42.4279C47.1005 0 50.9056 3.80511 50.9056 8.4777V11.0407C50.9056 11.2379 51.0634 11.3956 51.2605 11.3956H58.2792C64.2334 11.3956 69.1031 16.2456 69.1031 22.2195V50.1762C69.0834 56.15 64.2334 61 58.2595 61ZM10.8239 16.7188C7.78765 16.7188 5.32321 19.1833 5.32321 22.2195V50.1762C5.32321 53.2123 7.78765 55.6768 10.8239 55.6768H58.2792C61.3154 55.6768 63.7799 53.2123 63.7799 50.1762V22.2195C63.7799 19.1833 61.3154 16.7188 58.2792 16.7188H51.2605C48.1257 16.7188 45.5824 14.1755 45.5824 11.0407V8.4777C45.5824 6.74273 44.1629 5.32321 42.4279 5.32321H26.6752C24.9402 5.32321 23.5207 6.74273 23.5207 8.4777V11.0407C23.5207 14.1755 20.9774 16.7188 17.8426 16.7188H10.8239Z" fill="#76459A"/>
<path d="M34.5417 51.8519C25.6105 51.8519 18.3355 44.5768 18.3355 35.6457C18.3355 26.7145 25.6105 19.4395 34.5417 19.4395C43.4728 19.4395 50.7479 26.7145 50.7479 35.6457C50.7479 44.5768 43.4728 51.8519 34.5417 51.8519ZM34.5417 24.7824C28.5481 24.7824 23.6587 29.6718 23.6587 35.6654C23.6587 41.6589 28.5481 46.5484 34.5417 46.5484C40.5352 46.5484 45.4247 41.6589 45.4247 35.6654C45.4247 29.6718 40.5352 24.7824 34.5417 24.7824Z" fill="#76459A"/>
</svg>
