<svg width="122" height="98" viewBox="0 0 122 98" fill="none" xmlns="http://www.w3.org/2000/svg">
<path d="M4.08057 72.1655C3.53927 72.1655 2.99798 72.3949 2.60241 72.7702C2.20685 73.1455 1.99866 73.7085 1.99866 74.2506C1.99866 74.7928 2.22767 75.3349 2.60241 75.7311C2.97716 76.1272 3.51845 76.3358 4.08057 76.3358C4.64269 76.3358 5.16316 76.1064 5.55873 75.7311C5.95429 75.3349 6.16248 74.8136 6.16248 74.2506C6.16248 73.7085 5.93347 73.1664 5.55873 72.7702C5.16316 72.3949 4.62187 72.1655 4.08057 72.1655Z" fill="#444444"/>
<path d="M33.2273 39.9089H18.3C17.1549 39.9089 16.2181 38.9706 16.2181 37.8238C16.2181 36.677 17.1549 35.7387 18.3 35.7387H40.1184L33.2273 39.9089Z" fill="#444444"/>
<path d="M39.3273 51.8149H3.66419C2.51914 51.8149 1.58228 50.8766 1.58228 49.7298C1.58228 48.583 2.51914 47.6447 3.66419 47.6447H39.3273C40.4724 47.6447 41.4092 48.583 41.4092 49.7298C41.4092 50.8766 40.4724 51.8149 39.3273 51.8149Z" fill="#444444"/>
<path d="M39.3274 64.0962H14.6151C13.47 64.0962 12.5331 63.1579 12.5331 62.0111C12.5331 60.8643 13.47 59.926 14.6151 59.926H39.3274C40.4724 59.926 41.4093 60.8643 41.4093 62.0111C41.4093 63.1787 40.4724 64.0962 39.3274 64.0962Z" fill="#444444"/>
<path d="M39.3273 76.3358H12.1792C11.0342 76.3358 10.0973 75.3975 10.0973 74.2506C10.0973 73.1038 11.0342 72.1655 12.1792 72.1655H39.3273C40.4724 72.1655 41.4092 73.1038 41.4092 74.2506C41.4092 75.4183 40.4724 76.3358 39.3273 76.3358Z" fill="#444444"/>
<path d="M110.029 36.6353V16.806H97.7249V24.5209" fill="#AD8FC2"/>
<path d="M76.9266 19.7668L107.406 49.8341H119.148C120.855 49.8341 121.688 47.7698 120.48 46.5604L76.9266 3.60724L33.373 46.5604C32.1655 47.749 32.9983 49.8341 34.7054 49.8341H46.4474L76.9266 19.7668Z" fill="#AD8FC2"/>
<path d="M118.19 45.08L107.947 34.9881V15.5966C107.947 14.4498 107.01 13.5115 105.865 13.5115H93.5611C92.416 13.5115 91.4791 14.4498 91.4791 15.5966V18.7451L74.6157 2.10597C73.8037 1.31363 72.5129 1.31363 71.701 2.10597L28.1682 45.08C27.0024 46.2268 26.6693 47.9366 27.273 49.4379C27.8976 50.9392 29.3341 51.9192 30.958 51.9192H37.2662V95.0809C37.2662 96.2277 38.2031 97.166 39.3481 97.166H107.01C108.155 97.166 109.092 96.2277 109.092 95.0809V81.9656C109.092 80.8187 108.155 79.8804 107.01 79.8804C105.865 79.8804 104.928 80.8187 104.928 81.9656V92.9958H41.4092V51.9192H42.7C43.387 51.9192 43.8867 51.6064 44.1573 51.3145L73.1792 22.686L102.201 51.3145C102.597 51.6898 103.117 51.9192 103.658 51.9192H104.949V62.6783C104.949 63.8251 105.886 64.7634 107.031 64.7634C108.176 64.7634 109.113 63.8251 109.113 62.6783V51.9192H115.421C117.045 51.9192 118.482 50.9392 119.106 49.4379C119.689 47.9366 119.356 46.2268 118.19 45.08ZM95.643 17.6609H103.783V30.8804L95.643 22.8528V17.6609ZM104.512 47.749L74.6365 18.2864C74.2409 17.8902 73.6996 17.6817 73.1792 17.6817C72.742 17.6817 72.2839 17.8277 71.9092 18.0987C71.8675 18.1404 41.8464 47.749 41.8464 47.749H31.3744L73.1792 6.5264L114.984 47.749H104.512Z" fill="#444444"/>
<path d="M107.01 73.6251C106.885 73.6251 106.74 73.6042 106.615 73.5834C106.49 73.5625 106.344 73.5208 106.219 73.4583C106.094 73.4166 105.969 73.3332 105.865 73.2706C105.761 73.1872 105.636 73.1038 105.553 73.0204C105.449 72.9161 105.366 72.8119 105.303 72.7076C105.22 72.6034 105.157 72.4783 105.116 72.3531C105.074 72.228 105.032 72.1029 104.991 71.957C104.97 71.8319 104.949 71.6859 104.949 71.5608C104.949 71.4149 104.97 71.2897 104.991 71.1646C105.012 71.0395 105.053 70.8936 105.116 70.7685C105.157 70.6434 105.22 70.5183 105.303 70.414C105.386 70.3097 105.47 70.1846 105.553 70.1012C105.657 69.997 105.761 69.9136 105.865 69.851C105.969 69.7676 106.094 69.7051 106.219 69.6634C106.344 69.6217 106.469 69.58 106.615 69.5382C106.885 69.4757 107.156 69.4757 107.427 69.5382C107.552 69.5591 107.697 69.6008 107.822 69.6634C107.947 69.7051 108.072 69.7885 108.176 69.851C108.28 69.9344 108.405 70.0178 108.488 70.1012C108.592 70.2055 108.676 70.3097 108.738 70.414C108.822 70.5183 108.884 70.6434 108.926 70.7685C108.967 70.8936 109.009 71.0187 109.051 71.1646C109.071 71.2897 109.092 71.4357 109.092 71.5608C109.092 71.6859 109.071 71.8319 109.051 71.957C109.03 72.0821 108.988 72.228 108.926 72.3531C108.884 72.4783 108.801 72.6034 108.738 72.7076C108.655 72.8119 108.572 72.937 108.488 73.0204C108.384 73.1246 108.28 73.208 108.176 73.2706C108.072 73.354 107.947 73.4166 107.822 73.4583C107.697 73.5 107.572 73.5417 107.427 73.5834C107.281 73.6251 107.156 73.6251 107.01 73.6251Z" fill="#444444"/>
<path d="M86.5242 95.8732H64.8307V67.6201C64.8307 61.6149 69.6815 56.7567 75.6775 56.7567C81.6734 56.7567 86.5242 61.6149 86.5242 67.6201V95.8732Z" fill="#FDC870"/>
<path d="M86.0037 96.603H60.3546V66.369C60.3546 59.2796 66.1007 53.5247 73.1792 53.5247C80.2576 53.5247 86.0037 59.2796 86.0037 66.369V96.603ZM64.3102 92.6413H82.0481V66.369C82.0481 61.469 78.0716 57.4864 73.1792 57.4864C68.2867 57.4864 64.3102 61.469 64.3102 66.369V92.6413Z" fill="#444444"/>
</svg>
