<svg width="546" height="483" viewBox="0 0 546 483" fill="none" xmlns="http://www.w3.org/2000/svg">
<path d="M289.937 482.126C423.072 482.126 531 374.198 531 241.063C531 107.928 423.072 0 289.937 0C156.802 0 48.8739 107.928 48.8739 241.063C48.8739 374.198 156.802 482.126 289.937 482.126Z" fill="#FDC870" fill-opacity="0.9"/>
<path d="M0 196.383C0 187.269 22.582 185.334 31.4535 185.334C49.5191 185.334 50.7289 175.011 65.7298 175.011C78.9564 175.011 85.6504 185.656 97.9092 185.656C124.282 185.656 130.169 155.251 155.816 155.251C181.947 155.251 180.575 186.947 204.932 186.947C217.271 186.947 291.469 189.286 291.469 196.302L0 196.383Z" fill="white"/>
<path d="M378.57 204.287C378.57 198.56 398.168 189.528 408.814 189.528C429.944 189.528 423.331 196.867 436.638 196.867C451.8 196.867 455.188 164.042 478.254 164.042C503.416 164.042 499.465 196.141 514.869 196.141C521.482 196.141 524.869 192.996 534.305 192.996C539.79 192.996 545.758 198.48 545.758 204.206L378.57 204.287Z" fill="white"/>
<path d="M292.437 122.427C292.679 122.427 292.76 122.427 292.84 122.427C294.373 122.588 295.905 122.749 297.357 122.83C302.599 122.991 307.761 122.265 312.842 121.298C313.084 121.217 313.406 121.298 313.648 121.378C316.713 122.991 319.778 124.604 322.762 126.217C323.568 126.621 324.455 127.024 325.181 127.669C325.988 128.476 326.794 129.282 327.681 130.089C330.343 132.75 333.085 135.331 335.666 137.992C336.472 138.799 337.198 139.041 338.246 138.718C338.488 138.637 338.73 138.637 338.892 138.557C339.859 138.234 339.94 138.154 339.456 137.266C338.488 135.411 337.521 133.556 336.553 131.702C336.069 130.734 335.585 129.766 335.02 128.798C335.504 128.637 335.908 128.556 336.311 128.476C337.682 127.992 338.408 127.104 338.488 125.814C338.569 124.766 337.924 123.395 336.795 122.991C335.908 122.669 335.02 122.507 334.133 122.669C333.327 122.83 332.601 122.991 331.794 123.153C330.988 121.459 330.101 119.765 329.214 117.991C329.536 117.91 329.778 117.83 330.02 117.83C333.569 117.023 337.117 116.297 340.505 115.168C344.779 113.797 348.731 111.862 352.199 108.878C353.086 108.071 353.893 107.265 354.457 106.216C354.941 105.329 354.78 104.764 353.892 104.2C353.086 103.635 352.199 103.313 351.392 102.748C350.667 102.264 349.699 102.022 348.892 101.861C346.231 101.216 343.489 101.619 340.827 101.942C338.65 102.264 336.472 102.748 334.295 103.151C330.827 103.797 327.52 104.764 324.133 105.652C323.326 105.894 322.439 106.135 321.632 106.377C321.149 106.539 320.665 106.539 320.181 106.7C318.89 107.103 317.681 107.587 316.471 107.99C315.906 108.152 315.584 107.91 315.745 107.345C315.987 106.377 316.068 105.49 315.342 104.684C314.535 103.797 313.487 103.474 312.358 103.313C311.229 103.151 310.261 103.555 309.212 103.958C308.809 104.119 308.567 104.039 308.164 103.877C305.18 102.264 302.276 100.651 299.292 99.0383C294.937 96.6994 290.582 94.2799 286.227 91.9411C282.678 90.0055 279.049 88.0699 275.501 86.0536C274.13 85.2471 272.92 85.5697 271.71 86.2149C271.146 86.5375 271.146 86.7794 271.629 87.1827C275.259 89.7635 278.807 92.425 282.437 95.0058C286.388 97.8285 290.421 100.732 294.373 103.555C295.018 103.958 295.663 104.442 296.066 105.006C297.276 106.458 298.325 107.99 299.454 109.442C300.018 110.168 300.583 110.894 301.147 111.7C299.05 112.426 296.954 113.152 294.857 113.878C294.695 113.959 294.534 113.878 294.453 113.878C293.566 113.797 293.324 113.233 293.082 112.507C292.276 110.087 291.469 107.748 290.663 105.329C290.502 104.764 290.098 104.442 289.453 104.603C288.727 104.764 288.001 105.087 287.356 105.41C287.114 105.49 286.872 105.813 286.792 106.135C286.227 108.474 285.743 110.733 285.259 113.071C285.017 114.039 284.856 115.007 284.614 115.975C284.211 115.733 283.808 115.572 283.404 115.33C280.017 113.636 276.63 111.942 273.242 110.249C272.275 109.765 271.307 109.442 270.178 109.684C269.936 109.765 269.613 109.926 269.21 110.007C273.323 112.829 277.275 115.652 281.227 118.394C280.743 118.556 280.501 118.798 280.501 119.281C280.501 119.685 280.743 119.927 281.146 120.007C282.275 120.33 283.404 120.652 284.614 120.975C284.775 121.056 285.017 121.136 285.179 121.298C287.356 123.233 289.534 125.25 291.711 127.266C292.195 127.669 292.598 127.83 293.163 127.75C293.566 127.669 293.97 127.669 294.292 127.508C295.018 127.266 295.018 127.104 294.695 126.459C293.97 125.169 293.244 123.878 292.437 122.427Z" fill="#444444"/>
<path d="M292.437 122.427C293.244 123.798 294.05 125.169 294.776 126.459C295.179 127.104 295.099 127.266 294.373 127.508C293.97 127.669 293.566 127.669 293.244 127.75C292.679 127.83 292.195 127.669 291.792 127.266C289.614 125.25 287.437 123.314 285.259 121.298C285.098 121.136 284.937 121.056 284.695 120.975C283.566 120.652 282.437 120.33 281.227 120.007C280.824 119.927 280.662 119.685 280.582 119.281C280.501 118.798 280.824 118.556 281.307 118.394C277.275 115.652 273.323 112.829 269.291 110.007C269.694 109.845 269.936 109.684 270.258 109.684C271.387 109.442 272.355 109.765 273.323 110.249C276.71 111.942 280.098 113.636 283.485 115.33C283.888 115.491 284.211 115.733 284.695 115.975C284.937 114.926 285.179 114.039 285.34 113.071C285.824 110.733 286.388 108.474 286.872 106.135C286.953 105.894 287.195 105.571 287.437 105.41C288.082 105.087 288.808 104.845 289.534 104.603C290.098 104.442 290.502 104.764 290.744 105.329C291.55 107.748 292.357 110.087 293.163 112.507C293.405 113.233 293.647 113.797 294.534 113.878C294.695 113.878 294.857 113.878 294.937 113.878C297.034 113.152 299.05 112.507 301.228 111.7C300.663 110.894 300.099 110.168 299.534 109.442C298.405 107.99 297.276 106.458 296.147 105.006C295.663 104.442 295.018 103.958 294.453 103.555C290.502 100.651 286.55 97.8285 282.517 95.0057C278.888 92.4249 275.339 89.8441 271.71 87.1827C271.146 86.7794 271.146 86.5375 271.791 86.2149C273 85.5697 274.21 85.3277 275.581 86.0536C279.13 88.0698 282.759 90.0054 286.308 91.941C290.663 94.2799 295.018 96.6994 299.373 99.0382C302.357 100.651 305.261 102.264 308.245 103.877C308.567 104.039 308.89 104.119 309.293 103.958C310.261 103.555 311.309 103.151 312.438 103.313C313.567 103.474 314.697 103.716 315.422 104.684C316.148 105.49 316.068 106.458 315.826 107.345C315.664 107.91 315.987 108.232 316.552 107.99C317.842 107.587 319.052 107.103 320.261 106.7C320.745 106.539 321.229 106.539 321.713 106.377C322.6 106.135 323.407 105.894 324.213 105.652C327.601 104.764 330.907 103.716 334.375 103.151C336.553 102.748 338.73 102.264 340.908 101.942C343.569 101.619 346.311 101.216 348.973 101.861C349.86 102.103 350.828 102.264 351.473 102.748C352.279 103.313 353.167 103.716 353.973 104.2C354.78 104.764 355.022 105.329 354.538 106.216C353.973 107.265 353.167 108.152 352.279 108.878C348.812 111.781 344.86 113.717 340.585 115.168C337.117 116.297 333.649 117.104 330.101 117.83C329.859 117.91 329.617 117.91 329.294 117.991C330.181 119.765 330.988 121.459 331.875 123.153C332.682 122.991 333.407 122.749 334.214 122.669C335.101 122.507 335.988 122.669 336.875 122.991C338.004 123.395 338.65 124.766 338.569 125.814C338.488 127.104 337.762 127.992 336.391 128.476C335.988 128.637 335.585 128.717 335.101 128.798C335.585 129.766 336.149 130.734 336.633 131.702C337.601 133.556 338.569 135.411 339.537 137.266C340.021 138.154 339.94 138.234 338.972 138.557C338.73 138.637 338.488 138.718 338.327 138.718C337.359 138.96 336.553 138.799 335.746 137.992C333.165 135.331 330.423 132.669 327.762 130.089C326.955 129.282 326.068 128.476 325.262 127.669C324.617 126.943 323.729 126.621 322.842 126.217C319.778 124.604 316.713 122.991 313.729 121.378C313.487 121.298 313.164 121.217 312.922 121.298C307.761 122.265 302.599 122.991 297.437 122.83C295.905 122.749 294.373 122.588 292.921 122.427C292.76 122.507 292.598 122.507 292.437 122.427Z" fill="#444444"/>
<path opacity="0.4" d="M314.697 132.669C313.487 131.218 312.438 129.927 311.471 128.717C306.632 123.072 301.228 119.443 295.663 116.781C285.098 111.781 274.291 110.491 263.322 111.216C257.112 111.62 250.902 112.749 244.773 114.523C235.659 117.104 226.707 121.056 217.916 126.298C209.851 131.137 202.109 136.944 194.689 144.122C186.463 152.106 178.801 161.461 172.269 173.317C167.994 181.14 164.284 189.689 162.107 199.851C159.203 213.319 159.687 226.304 164.526 238.402C167.107 244.773 170.575 249.612 174.446 253.564C180.495 259.774 187.027 263.403 193.802 265.823C193.883 265.823 193.883 265.903 193.963 266.145C192.512 265.742 191.141 265.339 189.689 264.855C184.124 263.08 178.721 260.419 173.478 256.467C168.639 252.838 164.204 248.16 160.413 241.628C153.638 229.772 151.3 215.739 153.638 199.528C155.09 189.124 158.316 180.172 162.187 171.946C168.236 159.123 175.736 149.041 183.801 140.331C190.415 133.234 197.351 127.346 204.529 122.346C213.884 115.813 223.562 110.894 233.482 107.426C239.773 105.248 246.225 103.716 252.596 102.829C258.887 102.022 265.097 101.861 271.387 102.668C279.775 103.716 288.001 106.135 295.986 111.136C300.099 113.717 304.051 116.943 307.599 121.217C310.099 124.524 312.6 127.992 314.697 132.669Z" fill="#444444"/>
<path opacity="0.31" d="M184.285 438.494C220.988 438.494 250.741 431.381 250.741 422.606C250.741 413.832 220.988 406.718 184.285 406.718C147.583 406.718 117.83 413.832 117.83 422.606C117.83 431.381 147.583 438.494 184.285 438.494Z" fill="#666666"/>
<path opacity="0.31" d="M483.805 443.511C484.636 434.776 431.176 422.542 364.398 416.185C297.62 409.829 242.811 411.757 241.98 420.493C241.148 429.228 294.609 441.462 361.387 447.818C428.165 454.175 482.973 452.246 483.805 443.511Z" fill="#666666"/>
<path d="M128.637 337.762C127.427 319.697 133.718 302.841 146.944 288.969C156.784 278.565 166.946 273.565 167.349 273.404L170.897 280.662C170.817 280.743 161.461 285.421 152.59 294.776C140.976 307.115 135.653 321.39 136.702 337.279L128.637 337.762Z" fill="#76459A"/>
<path d="M299.615 318.406C295.582 318.406 291.631 317.681 287.921 316.229C269.936 309.212 262.113 287.921 261.79 286.953L269.371 284.211L265.581 285.582L269.371 284.211C269.452 284.372 276.307 303.002 290.905 308.648C298.325 311.551 306.632 310.583 315.664 305.825L319.374 313.003C312.519 316.551 305.906 318.406 299.615 318.406Z" fill="#76459A"/>
<path d="M178.882 379.378C178.801 382.926 177.511 394.621 172.269 399.782C170.333 401.718 167.994 403.089 165.091 403.089C161.139 403.089 157.268 402.202 153.88 401.879C145.573 400.992 139.041 400.105 135.089 404.783C132.105 408.251 131.863 413.251 134.121 421.316L134.524 422.606L142.831 419.784L142.428 418.493C140.412 411.477 141.541 409.944 141.541 409.944C142.428 408.896 148.799 409.783 152.671 410.186C156.3 410.589 160.413 411.154 164.768 411.154C170.01 411.154 174.527 409.138 178.237 405.509C187.269 396.718 187.511 379.942 187.511 379.297V377.765L178.882 378.087V379.378Z" fill="#76459A"/>
<path d="M228.482 415.67L217.029 420.026L212.674 377.12L204.045 378.491L209.529 432.042L231.224 423.735L228.482 415.67Z" fill="#76459A"/>
<path d="M278.162 251.628C279.775 243.079 274.291 236.063 265.742 236.063H187.995C179.527 236.063 170.978 243.321 169.043 251.789L143.234 365.99C141.138 375.184 146.622 382.846 155.493 382.846H236.869C245.741 382.846 254.451 375.265 256.145 366.071L278.162 251.628Z" fill="#865DA6"/>
<path d="M241.063 373.652H156.139C150.412 373.652 143.315 365.99 143.315 365.99C141.218 375.184 146.702 382.846 155.574 382.846H236.95C245.821 382.846 254.451 375.265 256.225 366.151C252.354 370.668 246.709 373.652 241.063 373.652Z" fill="#76459A"/>
<path d="M169.204 363.732C168.801 363.732 168.397 363.651 168.075 363.57C165.494 362.925 163.881 360.264 164.526 357.683L188.882 258.967C189.528 256.387 192.189 254.774 194.77 255.419C197.351 256.064 198.964 258.725 198.318 261.306L173.962 360.022C173.398 362.199 171.381 363.732 169.204 363.732Z" fill="#6E4299"/>
<path d="M198.883 363.732C198.48 363.732 198.077 363.651 197.754 363.57C195.173 362.925 193.56 360.264 194.205 357.683L218.562 258.967C219.207 256.387 221.868 254.774 224.449 255.419C227.03 256.064 228.643 258.725 227.998 261.306L203.641 360.022C202.996 362.199 201.061 363.732 198.883 363.732Z" fill="#6E4299"/>
<path d="M228.482 363.732C228.078 363.732 227.675 363.651 227.353 363.57C224.772 362.925 223.159 360.264 223.804 357.683L248.16 258.967C248.805 256.387 251.467 254.774 254.048 255.419C256.628 256.064 258.241 258.725 257.596 261.306L233.24 360.022C232.595 362.199 230.659 363.732 228.482 363.732Z" fill="#6E4299"/>
<path d="M220.901 197.109V197.431H255.419V197.27L220.901 197.109Z" fill="#E87613"/>
<path d="M247.434 236.143H252.515L260.419 196.786H255.419L247.434 236.143Z" fill="#666666"/>
<path d="M264.532 194.77L265.581 189.447C265.823 188.157 265.177 187.027 263.806 187.027L216.303 186.947C215.013 186.947 213.4 187.995 213.158 189.286L212.029 194.77C211.706 196.06 212.836 197.431 214.207 197.431H214.771H215.9H220.901V197.109L255.419 197.27V197.431H260.419H261.79C263.161 197.431 264.21 196.141 264.532 194.77Z" fill="#6E4299"/>
<path d="M207.351 236.143H212.513L220.901 196.786H215.9L207.351 236.143Z" fill="#666666"/>
<path d="M362.083 167.776C358.615 163.663 356.276 158.663 356.68 153.098C357.809 136.968 380.31 140.516 384.665 148.662C389.02 156.808 388.536 177.454 382.891 178.906C380.633 179.47 375.874 178.099 370.955 175.115L374.019 196.81H355.954L362.083 167.776Z" fill="white"/>
<path d="M392.636 137.347C392.233 136.057 391.265 134.928 389.894 134.605C389.572 134.524 389.249 134.524 388.846 134.524C388.685 134.524 388.685 134.524 388.604 134.444C388.523 134.363 388.523 134.202 388.523 134.121C388.443 133.879 388.362 133.637 388.281 133.476C387.959 132.75 387.555 132.024 386.91 131.46C385.862 130.411 384.41 129.685 382.878 129.524C382.071 129.443 381.265 129.605 380.458 129.847C380.055 130.008 379.652 130.169 379.249 130.33C379.168 130.411 378.765 130.653 378.684 130.653C378.523 130.653 378.281 130.33 378.2 130.25C376.91 129.282 375.297 128.879 373.764 128.879C371.99 128.879 370.216 128.959 368.683 130.089C368.361 130.33 368.038 130.572 367.796 130.814C367.635 130.976 367.474 131.137 367.393 131.218C367.312 131.298 367.232 131.379 367.151 131.54C366.99 131.702 367.07 131.782 366.828 131.621C366.103 131.218 365.296 130.976 364.409 131.056C363.925 131.137 363.441 131.298 362.957 131.46C362.796 131.54 362.473 131.782 362.231 131.782C362.07 131.782 361.667 131.54 361.505 131.46C360.538 131.137 359.57 131.056 358.602 131.218C357.634 131.379 356.586 131.782 355.779 132.347C355.376 132.589 354.973 132.911 354.731 133.315C354.57 133.476 354.489 133.637 354.328 133.798C354.247 133.879 354.086 133.96 354.005 134.121C354.005 134.04 352.876 133.637 352.795 133.556C352.231 133.395 351.666 133.476 351.102 133.637C350.053 133.96 349.166 134.766 348.44 135.573C348.037 135.976 347.714 136.46 347.472 136.944C347.311 137.186 347.23 137.428 347.069 137.67C346.988 137.75 346.988 137.912 346.908 138.073C346.827 138.234 346.747 138.234 346.585 138.234C345.698 138.557 344.972 139.041 344.327 139.686C343.762 140.412 343.359 141.218 343.198 142.105C343.198 142.186 343.198 142.347 343.117 142.428C343.037 142.428 342.875 142.428 342.875 142.428C342.633 142.428 342.391 142.509 342.23 142.509C341.827 142.589 341.424 142.751 341.02 142.912C339.569 143.638 338.52 145.009 338.036 146.541C337.472 148.154 337.472 150.009 338.117 151.541C338.198 151.783 338.359 152.025 338.52 152.267C338.601 152.429 338.601 152.429 338.601 152.59C338.52 152.751 338.44 152.913 338.359 153.074C338.117 153.638 337.956 154.203 337.794 154.767C337.633 155.735 337.552 156.703 337.714 157.671C337.794 158.074 337.956 158.558 338.198 158.961C338.278 159.123 338.44 159.365 338.601 159.526C338.682 159.606 338.762 159.687 338.843 159.768C338.923 159.848 338.923 159.848 339.004 159.929C339.085 160.09 339.165 159.929 339.085 160.171C339.004 160.413 338.843 160.736 338.762 160.978C338.682 161.219 338.601 161.542 338.44 161.784C338.278 162.349 338.117 162.913 338.036 163.478C337.875 164.607 337.875 165.736 338.44 166.784C338.682 167.188 339.004 167.591 339.407 167.913C339.569 168.075 339.811 168.155 340.053 168.317C340.133 168.397 340.295 168.397 340.375 168.478C340.456 168.559 340.375 168.801 340.295 168.962C340.133 170.091 340.053 171.301 340.375 172.349C340.698 173.398 341.343 174.285 342.23 174.849C343.924 175.978 346.263 175.898 348.037 175.011C348.521 174.769 348.924 174.446 349.327 174.123C350.295 175.495 352.392 175.414 353.844 175.011C355.618 174.527 357.07 173.317 357.957 171.623C359.086 172.994 361.505 172.591 362.312 171.059C362.473 170.656 362.635 170.252 362.715 169.849C362.715 169.607 362.715 169.446 362.715 169.204C362.715 168.962 362.957 168.639 363.038 168.397C363.28 167.913 363.36 167.349 363.36 166.784C363.36 166.462 363.36 166.22 363.28 165.897C363.28 165.655 363.36 165.413 363.36 165.171C362.877 165.252 362.312 165.091 361.909 165.01C361.505 164.849 361.102 164.526 360.78 164.204C360.054 163.478 359.651 162.51 359.328 161.542C358.683 159.445 358.925 156.945 361.102 155.735C362.07 155.171 365.054 155.171 366.264 155.493C367.474 155.735 368.925 158.477 369.006 158.719C369.087 158.881 369.006 159.042 369.167 159.203C369.49 159.445 370.054 159.042 370.216 158.8C370.619 158.477 370.942 157.993 371.183 157.51C371.748 156.461 372.151 155.413 372.474 154.284C372.716 153.396 372.877 152.59 373.2 151.703C373.522 150.896 374.006 150.17 374.813 149.687C375.619 149.203 376.587 148.88 377.555 148.557C378.442 148.235 379.329 147.832 380.055 147.186C380.216 147.025 380.378 146.864 380.458 146.702C380.539 146.541 380.62 146.299 380.781 146.219C381.023 146.057 381.345 146.461 381.587 146.541C382.555 147.186 383.442 148.073 384.088 149.041C384.733 150.009 385.297 150.896 385.781 152.025C386.104 152.832 386.346 153.8 386.91 154.526C387.152 154.848 389.088 155.009 389.733 154.767C390.378 154.526 391.023 153.88 391.265 153.477C391.507 153.074 391.507 152.59 391.427 152.106C391.346 151.864 391.265 151.541 391.185 151.3C391.104 151.058 391.104 150.896 390.943 150.654C390.701 150.251 390.378 150.009 389.975 149.848C390.459 149.445 390.781 148.961 391.023 148.396C391.265 147.832 391.507 147.106 391.588 146.541C391.669 146.057 391.588 145.493 391.265 145.089C390.943 144.606 390.459 144.364 389.975 144.041C390.62 143.476 391.265 142.831 391.749 142.105C392.475 140.734 393.04 139.041 392.636 137.347Z" fill="#191847"/>
<path d="M349.86 259.18L386.072 355.153L411.557 425.884H425.994L391.072 259.18H349.86Z" fill="#211729"/>
<path d="M340.908 259.18C340.505 292.085 340.827 336.443 339.859 338.459C339.214 339.83 320.181 355.395 282.759 385.236L290.26 397.898C334.778 369.187 358.167 352.976 360.425 349.105C363.812 343.379 380.991 290.633 389.862 259.099L340.908 259.18Z" fill="#331F43"/>
<path d="M269.649 393.835L282.224 384.23L292.385 396.339C293.191 405.455 296.241 415.74 301.484 427.132L299.198 429.05L280.794 407.118L275.644 398.596L274.47 399.581L269.649 393.835Z" fill="#444444"/>
<path d="M410.204 439.462L410.93 423.655H426.737C434.238 428.897 444.077 433.171 456.175 436.478V439.462H427.544L417.705 437.93V439.462H410.204Z" fill="#444444"/>
<path d="M413.753 249.696L437.787 267.358C444.32 269.133 449.723 271.31 454.159 273.891C455.207 274.859 456.417 276.714 452.143 276.391C447.868 276.069 443.352 275.907 442.707 277.359C442.142 278.811 444.723 280.585 443.513 282.521C442.707 283.811 438.916 280.504 432.222 272.601L408.43 262.761L413.753 249.696ZM321.409 250.261L337.136 250.341C327.377 281.714 322.135 298.409 321.409 300.344C319.635 304.699 319.715 310.829 321.328 314.377C316.167 316.716 320.36 308.571 313.908 311.555C308.021 314.297 311.328 320.104 304.472 319.055C300.843 317.765 301.488 311.877 303.747 310.345C309.311 306.554 310.682 300.667 311.731 298.489C313.183 295.505 316.409 279.375 321.409 250.261Z" fill="white"/>
<path d="M366.17 184.128L372.702 182.998C396.897 203.887 406.817 244.051 436.497 265.342L429.319 274.214C377.945 267.842 365.202 218.888 366.17 184.128Z" fill="#6E4299"/>
<path d="M337.781 266.068C363.912 266.068 383.187 266.068 395.446 266.068C398.107 266.068 397.623 262.277 397.22 260.342C392.784 238.163 375.686 214.291 375.686 182.676L359.072 180.095C345.281 202.274 340.523 229.534 337.781 266.068Z" fill="#DDE3E9"/>
<path d="M338.265 201.871C335.845 201.145 333.91 199.532 332.539 197.032C326.49 186.063 328.667 180.014 335.119 177.998C341.652 175.982 347.378 180.095 357.782 180.095C358.347 180.095 358.831 180.095 359.314 180.176L364.557 180.498C379.477 231.147 383.59 264.939 376.896 281.875H331.49C328.829 288.166 326.248 293.408 323.748 297.683H311.408C310.199 260.1 319.151 228.162 338.265 201.871Z" fill="#865DA6"/>
<path d="M341.329 255.906C342.781 267.842 345.039 276.553 348.265 281.956H331.41C334.636 274.617 337.942 265.907 341.329 255.906Z" fill="black" fill-opacity="0.1"/>
</svg>
