<svg width="120" height="123" viewBox="0 0 120 123" fill="none" xmlns="http://www.w3.org/2000/svg">
<g clip-path="url(#clip0)">
<path d="M110.438 51.3141V26.642C93.5156 21.9815 76.5703 14.9906 61.2188 6.31818C45.4688 15.2068 29.3438 21.8854 12 26.642V51.3141C12 76.851 24.1406 93.7635 34.3359 103.445C40.8047 109.571 47.0625 113.463 51.2109 115.625C56.4375 118.387 60.0703 119.372 61.2422 119.372C62.4141 119.372 66.0469 118.363 71.2734 115.625C75.3984 113.463 81.6797 109.571 88.1484 103.445C98.2734 93.7635 110.438 76.851 110.438 51.3141ZM106.922 51.3141C106.922 60.7072 105.188 69.6199 101.766 77.7879C98.3672 85.9318 93.2812 93.3551 86.6719 99.8654C81.9375 104.526 76.4766 108.634 70.875 111.733C69.8672 112.286 64.7109 115.096 61.6406 115.673C61.5 115.697 61.3594 115.721 61.2188 115.721C61.0781 115.721 60.9375 115.697 60.7969 115.673C57.7266 115.096 52.5703 112.286 51.5625 111.733C45.9609 108.634 40.5 104.526 35.7656 99.8654C29.1563 93.3551 24.0703 85.9318 20.6719 77.7879C17.25 69.5959 15.5156 60.7072 15.5156 51.3141V31.2065C15.5156 30.1254 16.2188 29.1885 17.2031 28.9002C32.0156 24.5039 46.4531 18.4981 60.1172 11.0268C60.7969 10.6424 61.6406 10.6424 62.3203 11.0268C75.9375 18.45 90.375 24.4799 105.234 28.9002C106.242 29.1885 106.922 30.1494 106.922 31.2065V51.3141Z" fill="#FDC870"/>
<path d="M53.5078 50.8816V43.05C53.5078 38.7017 56.9766 35.1463 61.2188 35.1463C65.461 35.1463 68.9297 38.7017 68.9297 43.05V50.5693C69 50.6654 69.0703 50.7855 69.1172 50.9056C69.1875 51.1219 69.2813 51.29 69.375 51.4582C69.6797 51.5783 69.9844 51.6504 70.336 51.6744C71.4375 51.6984 72.5391 51.266 73.6172 50.8576V43.074C73.6172 36.0592 68.0625 30.3656 61.2188 30.3656C54.375 30.3656 48.8203 36.0592 48.8203 43.074V50.9297C50.3672 50.7615 51.9375 50.7615 53.5078 50.8816Z" fill="#FDC870"/>
<path d="M72.914 75.5057H48.8203C48.4453 75.5057 48.1406 75.1934 48.1406 74.809V56.6953C48.1406 56.311 48.4453 55.9987 48.8203 55.9987H72.914C73.289 55.9987 73.5937 56.311 73.5937 56.6953V74.809C73.6172 75.1934 73.289 75.5057 72.914 75.5057Z" fill="#AD8FC2"/>
<path d="M112.148 21.2847C94.6172 16.6242 76.9688 9.36912 61.1484 0.31228C60.4453 -0.0961182 59.5781 -0.0961182 58.8516 0.31228C42.5625 9.63337 25.875 16.5041 7.85156 21.2847C6.82031 21.549 6.09375 22.5099 6.09375 23.615V50.1369C6.09375 77.4035 19.0547 95.4451 29.9297 105.775C41.5781 116.874 55.1016 123 60 123C64.8984 123 78.4219 116.874 90.0703 105.775C100.945 95.4451 113.906 77.4035 113.906 50.1369V23.615C113.906 22.5099 113.18 21.573 112.148 21.2847ZM86.8828 102.268C80.4141 108.418 74.1562 112.286 70.0078 114.448C64.8047 117.186 61.1719 118.195 60 118.195C58.8281 118.195 55.1953 117.186 49.9688 114.448C45.8438 112.286 39.5625 108.394 33.1172 102.268C22.9219 92.5863 10.7812 75.6738 10.7812 50.1369V25.4648C28.125 20.7082 44.25 14.0537 60 5.14099C75.3516 13.8135 92.2969 20.8043 109.219 25.4648V50.1369C109.219 75.6738 97.0781 92.5863 86.8828 102.268Z" fill="#444444"/>
<path d="M104.016 27.7231C89.1797 23.3027 74.7422 17.2729 61.1016 9.84962C60.4219 9.46525 59.5781 9.46525 58.8984 9.84962C45.2578 17.2969 30.8203 23.3268 15.9844 27.7231C14.9766 28.0113 14.2969 28.9723 14.2969 30.0293V50.1369C14.2969 59.5301 16.0312 68.4428 19.4531 76.6108C22.8516 84.7547 27.9375 92.1779 34.5469 98.6883C39.2812 103.349 44.7422 107.457 50.3438 110.556C51.3516 111.108 56.5078 113.919 59.5781 114.496C59.7188 114.52 59.8594 114.544 60 114.544C60.1406 114.544 60.2812 114.52 60.4219 114.496C63.4922 113.919 68.6484 111.108 69.6563 110.556C75.2578 107.457 80.7188 103.349 85.4531 98.6883C92.0625 92.1779 97.1484 84.7547 100.547 76.6108C103.969 68.4188 105.703 59.5301 105.703 50.1369V30.0293C105.703 28.9483 105.023 28.0113 104.016 27.7231ZM101.016 50.1369C101.016 67.7701 94.6875 82.9289 82.1953 95.2289C77.7656 99.6012 72.6563 103.445 67.4297 106.328C65.0391 107.649 61.8281 109.187 60 109.667C58.1719 109.187 54.9609 107.649 52.5703 106.328C47.3438 103.421 42.2344 99.5772 37.8047 95.2289C25.3125 82.9289 18.9844 67.7701 18.9844 50.1369V31.8311C33.1406 27.5068 46.9219 21.7652 60 14.7024C73.0781 21.7412 86.8594 27.4828 101.016 31.8311V50.1369Z" fill="#444444"/>
<path d="M40.5469 86.076L40.5 86.0279C39.6328 85.043 38.1563 84.9709 37.1953 85.8598C36.2344 86.7486 36.1641 88.2621 37.0313 89.2471L37.0781 89.2951C37.5469 89.8236 38.1797 90.0879 38.8125 90.0879C39.375 90.0879 39.9375 89.8957 40.3828 89.4633C41.3438 88.5744 41.4141 87.0609 40.5469 86.076Z" fill="#444444"/>
<path d="M53.2031 96.9826C50.3906 95.1569 47.6718 93.0428 45.1171 90.7365C44.1562 89.8477 42.6796 89.9438 41.8125 90.9287C40.9453 91.9137 41.039 93.4272 42 94.316C44.7421 96.8145 47.6484 99.0967 50.6953 101.043C51.0937 101.283 51.5156 101.403 51.9375 101.403C52.7109 101.403 53.4843 101.019 53.9296 100.274C54.6093 99.1688 54.2812 97.6793 53.2031 96.9826Z" fill="#444444"/>
<path d="M72.3985 50.233V42.3293C72.3985 35.3145 66.8438 29.6209 60 29.6209C53.1563 29.6209 47.6016 35.3145 47.6016 42.3293V50.233C44.8125 50.3291 42.5859 52.6834 42.5859 55.5662V74.0162C42.5859 76.9711 44.9297 79.3735 47.8125 79.3735H72.2344C75.1172 79.3735 77.461 76.9711 77.461 74.0162V55.5662C77.4141 52.6834 75.1875 50.3291 72.3985 50.233ZM52.2891 42.3293C52.2891 37.9811 55.7578 34.4256 60 34.4256C64.2422 34.4256 67.7109 37.9811 67.7109 42.3293V50.233H52.2891V42.3293ZM72.7266 74.0162C72.7266 74.3045 72.4922 74.5688 72.1875 74.5688H47.7891C47.5078 74.5688 47.25 74.3286 47.25 74.0162V55.5662C47.25 55.278 47.4844 55.0137 47.7891 55.0137H49.9453H70.0547H72.211C72.4922 55.0137 72.75 55.2539 72.75 55.5662V74.0162H72.7266Z" fill="#444444"/>
<path d="M60 59.9625C58.1953 59.9625 56.7188 61.476 56.7188 63.3258C56.7188 64.2387 57.0703 65.0555 57.6562 65.6561V68.0104C57.6562 69.3317 58.7109 70.4127 60 70.4127C61.2891 70.4127 62.3438 69.3317 62.3438 68.0104V65.6561C62.9297 65.0555 63.2812 64.2147 63.2812 63.3258C63.2812 61.476 61.8047 59.9625 60 59.9625Z" fill="#444444"/>
</g>
<defs>
<clipPath id="clip0">
<rect width="120" height="123" fill="white"/>
</clipPath>
</defs>
</svg>
